<svg xmlns="http://www.w3.org/2000/svg" xmlns:xlink="http://www.w3.org/1999/xlink" width="1080" zoomAndPan="magnify" viewBox="0 0 810 809.999993" height="1080" preserveAspectRatio="xMidYMid meet" version="1.0"><defs><g/></defs><g fill="#000000" fill-opacity="1"><g transform="translate(48.604667, 498.013763)"><g><path d="M 99.339844 0 C 180.445312 0 210.582031 -33.855469 212.070312 -74.78125 L 218.769531 -269.738281 L 170.027344 -260.4375 L 180.074219 -71.804688 C 178.214844 -43.53125 121.289062 -39.066406 108.640625 -39.066406 C 61.015625 -39.066406 43.160156 -50.597656 42.785156 -61.761719 C 42.414062 -69.945312 47.625 -76.644531 51.714844 -80.734375 L 42.042969 -101.570312 C 26.414062 -90.039062 14.882812 -69.945312 14.882812 -49.855469 C 14.882812 -15.253906 48.367188 0 99.339844 0 Z M 147.707031 -104.175781 L 152.914062 -121.660156 C 153.660156 -126.125 148.078125 -125.011719 142.496094 -124.636719 L 131.707031 -123.894531 C 121.660156 -123.148438 99.710938 -122.777344 99.339844 -132.824219 C 99.339844 -142.871094 121.660156 -155.890625 134.683594 -139.519531 L 136.917969 -139.894531 C 139.519531 -143.613281 145.472656 -157.007812 146.960938 -161.101562 C 145.84375 -168.539062 124.265625 -175.980469 104.546875 -164.078125 C 88.175781 -154.773438 77.757812 -134.683594 82.597656 -120.171875 C 85.945312 -110.5 95.246094 -105.664062 104.917969 -104.546875 L 104.917969 -104.175781 L 81.480469 -99.339844 L 79.992188 -75.898438 L 82.597656 -74.78125 Z M 147.707031 -104.175781 "/></g></g></g><g fill="#000000" fill-opacity="1"><g transform="translate(282.255056, 498.013763)"><g><path d="M 98.59375 0 C 102.316406 0 106.035156 -10.417969 106.035156 -19.347656 C 106.035156 -27.902344 102.316406 -38.320312 98.59375 -38.320312 C 74.78125 -38.320312 63.621094 -53.949219 63.992188 -91.152344 L 66.597656 -277.179688 L 17.859375 -262.296875 L 30.136719 -92.640625 C 34.972656 -16.371094 55.808594 0 98.59375 0 Z M 98.59375 0 "/></g></g></g><g fill="#000000" fill-opacity="1"><g transform="translate(380.849561, 498.013763)"><g><path d="M 0 0 C 48.367188 0 87.433594 -31.996094 87.433594 -78.132812 L 87.804688 -173.003906 L 36.832031 -160.355469 L 45.390625 -75.898438 C 47.25 -50.972656 24.554688 -38.320312 0 -38.320312 C -3.71875 -38.320312 -7.441406 -27.902344 -7.441406 -19.347656 C -7.441406 -10.417969 -3.71875 0 0 0 Z M 29.390625 59.15625 C 38.320312 59.15625 45.761719 53.949219 49.109375 46.507812 C 52.460938 53.949219 60.273438 59.15625 68.832031 59.15625 C 80.734375 59.15625 90.410156 49.484375 90.410156 37.949219 C 90.410156 25.671875 80.734375 16 68.832031 16 C 60.273438 16 52.460938 21.578125 49.109375 29.019531 C 45.761719 21.578125 38.320312 16 29.390625 16 C 17.859375 16 8.183594 25.671875 8.183594 37.949219 C 8.183594 49.484375 17.859375 59.15625 29.390625 59.15625 Z M 29.390625 59.15625 "/></g></g></g><g fill="#000000" fill-opacity="1"><g transform="translate(483.536694, 498.013763)"><g><path d="M 36.460938 -0.371094 L 59.902344 -49.855469 L 66.96875 -277.179688 L 17.859375 -262.671875 L 31.996094 -0.371094 Z M 75.898438 74.78125 L 81.109375 57.296875 C 81.851562 52.832031 76.269531 53.949219 70.691406 54.320312 L 59.902344 55.0625 C 49.855469 55.808594 27.902344 55.808594 27.902344 45.761719 C 27.53125 35.71875 49.855469 22.695312 62.878906 39.066406 L 65.109375 38.695312 C 67.714844 34.972656 74.039062 21.578125 75.15625 17.488281 C 74.039062 10.046875 52.460938 2.605469 32.742188 14.511719 C 16.742188 24.183594 5.953125 43.902344 10.789062 58.414062 C 15.253906 72.179688 31.253906 73.667969 33.113281 74.039062 L 33.113281 74.410156 L 9.671875 79.246094 L 8.183594 102.6875 L 10.789062 103.804688 Z M 75.898438 74.78125 "/></g></g></g><g fill="#000000" fill-opacity="1"><g transform="translate(565.760827, 498.013763)"><g><path d="M 90.410156 72.550781 C 138.777344 63.621094 180.445312 11.160156 180.445312 -62.878906 C 180.445312 -136.171875 139.519531 -175.609375 96.734375 -175.609375 C 50.972656 -175.609375 14.882812 -132.078125 14.882812 -87.804688 C 14.882812 -43.53125 50.972656 -0.371094 98.964844 -0.371094 C 112.734375 -0.371094 125.011719 -3.347656 140.265625 -10.417969 L 141.007812 -9.300781 C 123.894531 11.160156 92.640625 26.414062 67.714844 29.390625 L 67.714844 36.089844 Z M 98.59375 -49.109375 C 74.039062 -49.109375 54.320312 -68.832031 54.320312 -93.015625 C 54.320312 -117.570312 74.039062 -137.660156 98.59375 -137.660156 C 123.148438 -137.660156 142.496094 -117.570312 142.496094 -93.015625 C 142.496094 -68.832031 123.148438 -49.109375 98.59375 -49.109375 Z M 98.59375 -49.109375 "/></g></g></g><g fill="#ffffff" fill-opacity="1"><g transform="translate(58.431354, 513.455705)"><g><path d="M 99.339844 0 C 180.445312 0 210.582031 -33.855469 212.070312 -74.78125 L 218.769531 -269.738281 L 170.027344 -260.4375 L 180.074219 -71.804688 C 178.214844 -43.53125 121.289062 -39.066406 108.640625 -39.066406 C 61.015625 -39.066406 43.160156 -50.597656 42.785156 -61.761719 C 42.414062 -69.945312 47.625 -76.644531 51.714844 -80.734375 L 42.042969 -101.570312 C 26.414062 -90.039062 14.882812 -69.945312 14.882812 -49.855469 C 14.882812 -15.253906 48.367188 0 99.339844 0 Z M 147.707031 -104.175781 L 152.914062 -121.660156 C 153.660156 -126.125 148.078125 -125.011719 142.496094 -124.636719 L 131.707031 -123.894531 C 121.660156 -123.148438 99.710938 -122.777344 99.339844 -132.824219 C 99.339844 -142.871094 121.660156 -155.890625 134.683594 -139.519531 L 136.917969 -139.894531 C 139.519531 -143.613281 145.472656 -157.007812 146.960938 -161.101562 C 145.84375 -168.539062 124.265625 -175.980469 104.546875 -164.078125 C 88.175781 -154.773438 77.757812 -134.683594 82.597656 -120.171875 C 85.945312 -110.5 95.246094 -105.664062 104.917969 -104.546875 L 104.917969 -104.175781 L 81.480469 -99.339844 L 79.992188 -75.898438 L 82.597656 -74.78125 Z M 147.707031 -104.175781 "/></g></g></g><g fill="#ffffff" fill-opacity="1"><g transform="translate(292.081743, 513.455705)"><g><path d="M 98.59375 0 C 102.316406 0 106.035156 -10.417969 106.035156 -19.347656 C 106.035156 -27.902344 102.316406 -38.320312 98.59375 -38.320312 C 74.78125 -38.320312 63.621094 -53.949219 63.992188 -91.152344 L 66.597656 -277.179688 L 17.859375 -262.296875 L 30.136719 -92.640625 C 34.972656 -16.371094 55.808594 0 98.59375 0 Z M 98.59375 0 "/></g></g></g><g fill="#ffffff" fill-opacity="1"><g transform="translate(390.676248, 513.455705)"><g><path d="M 0 0 C 48.367188 0 87.433594 -31.996094 87.433594 -78.132812 L 87.804688 -173.003906 L 36.832031 -160.355469 L 45.390625 -75.898438 C 47.25 -50.972656 24.554688 -38.320312 0 -38.320312 C -3.71875 -38.320312 -7.441406 -27.902344 -7.441406 -19.347656 C -7.441406 -10.417969 -3.71875 0 0 0 Z M 29.390625 59.15625 C 38.320312 59.15625 45.761719 53.949219 49.109375 46.507812 C 52.460938 53.949219 60.273438 59.15625 68.832031 59.15625 C 80.734375 59.15625 90.410156 49.484375 90.410156 37.949219 C 90.410156 25.671875 80.734375 16 68.832031 16 C 60.273438 16 52.460938 21.578125 49.109375 29.019531 C 45.761719 21.578125 38.320312 16 29.390625 16 C 17.859375 16 8.183594 25.671875 8.183594 37.949219 C 8.183594 49.484375 17.859375 59.15625 29.390625 59.15625 Z M 29.390625 59.15625 "/></g></g></g><g fill="#ffffff" fill-opacity="1"><g transform="translate(493.363381, 513.455705)"><g><path d="M 36.460938 -0.371094 L 59.902344 -49.855469 L 66.96875 -277.179688 L 17.859375 -262.671875 L 31.996094 -0.371094 Z M 75.898438 74.78125 L 81.109375 57.296875 C 81.851562 52.832031 76.269531 53.949219 70.691406 54.320312 L 59.902344 55.0625 C 49.855469 55.808594 27.902344 55.808594 27.902344 45.761719 C 27.53125 35.71875 49.855469 22.695312 62.878906 39.066406 L 65.109375 38.695312 C 67.714844 34.972656 74.039062 21.578125 75.15625 17.488281 C 74.039062 10.046875 52.460938 2.605469 32.742188 14.511719 C 16.742188 24.183594 5.953125 43.902344 10.789062 58.414062 C 15.253906 72.179688 31.253906 73.667969 33.113281 74.039062 L 33.113281 74.410156 L 9.671875 79.246094 L 8.183594 102.6875 L 10.789062 103.804688 Z M 75.898438 74.78125 "/></g></g></g><g fill="#ffffff" fill-opacity="1"><g transform="translate(575.587514, 513.455705)"><g><path d="M 90.410156 72.550781 C 138.777344 63.621094 180.445312 11.160156 180.445312 -62.878906 C 180.445312 -136.171875 139.519531 -175.609375 96.734375 -175.609375 C 50.972656 -175.609375 14.882812 -132.078125 14.882812 -87.804688 C 14.882812 -43.53125 50.972656 -0.371094 98.964844 -0.371094 C 112.734375 -0.371094 125.011719 -3.347656 140.265625 -10.417969 L 141.007812 -9.300781 C 123.894531 11.160156 92.640625 26.414062 67.714844 29.390625 L 67.714844 36.089844 Z M 98.59375 -49.109375 C 74.039062 -49.109375 54.320312 -68.832031 54.320312 -93.015625 C 54.320312 -117.570312 74.039062 -137.660156 98.59375 -137.660156 C 123.148438 -137.660156 142.496094 -117.570312 142.496094 -93.015625 C 142.496094 -68.832031 123.148438 -49.109375 98.59375 -49.109375 Z M 98.59375 -49.109375 "/></g></g></g></svg>